<?xml version="1.0" encoding="iso-8859-1"?>
<svg height="414pt" viewBox="0 0 414 414" width="414pt" xmlns="http://www.w3.org/2000/svg"><path d="m414 207c0 114.324219-92.675781 207-207 207s-207-92.675781-207-207 92.675781-207 207-207 207 92.675781 207 207zm0 0" fill="#f0c48a"/><path d="m83.394531 232.535156h197.34375v53.699219h-184.382812c-7.160157 0-12.960938-5.800781-12.960938-12.960937zm0 0" fill="#d3e6f8"/><path d="m266.222656 95.519531h-168.3125c-8.019531 0-14.515625 6.5-14.515625 14.515625v122.5h197.34375v-122.5c0-8.015625-6.5-14.515625-14.515625-14.515625zm0 0" fill="#fd919e"/><path d="m266.222656 95.519531h-14.40625v137.015625h28.921875v-122.5c0-8.015625-6.5-14.515625-14.515625-14.515625zm0 0" fill="#e8677d"/><path d="m251.820312 232.535156h28.917969v53.699219h-28.917969zm0 0" fill="#a4cff2"/><path d="m280.738281 292.234375h-184.382812c-10.457031 0-18.960938-8.503906-18.960938-18.960937v-40.738282c0-3.3125 2.6875-6 6-6h197.34375c3.3125 0 6 2.6875 6 6v53.699219c0 3.3125-2.6875 6-6 6zm-191.34375-53.699219v34.738282c0 3.835937 3.121094 6.960937 6.960938 6.960937h178.382812v-41.699219zm0 0" fill="#4c4372"/><path d="m280.738281 238.535156h-197.34375c-3.3125 0-6-2.6875-6-6v-122.5c0-11.3125 9.203125-20.515625 20.515625-20.515625h168.3125c11.3125 0 20.515625 9.203125 20.515625 20.515625v122.5c0 3.3125-2.6875 6-6 6zm-191.34375-12h185.34375v-116.5c0-4.695312-3.820312-8.515625-8.515625-8.515625h-168.3125c-4.695312 0-8.515625 3.820313-8.515625 8.515625zm0 0" fill="#4c4372"/><path d="m381.671875 286.234375h-311.652344c-3.257812 0-5.898437-2.640625-5.898437-5.898437v-14.550782c0-3.257812 2.640625-5.898437 5.898437-5.898437h311.652344c3.257813 0 5.898437 2.640625 5.898437 5.898437v14.550782c0 3.257812-2.640624 5.898437-5.898437 5.898437zm0 0" fill="#d3e6f8"/><path d="m375.683594 259.886719h-94.945313v-122.097657h50.996094c6.40625 0 12.375 3.238282 15.867187 8.605469l24.988282 38.390625c2.019531 3.105469 3.09375 6.730469 3.09375 10.433594zm0 0" fill="#d3e6f8"/><path d="m353.292969 155.140625h-53.800781v40.078125h76.191406c0-3.707031-1.074219-7.328125-3.097656-10.433594zm0 0" fill="#fff"/><path d="m375.683594 246.132812h-14.925782c-2.484374 0-4.5-2.015624-4.5-4.5v-20.269531c0-2.484375 2.015626-4.5 4.5-4.5h14.925782zm0 0" fill="#fff"/><path d="m375.683594 265.886719h-94.945313c-3.3125 0-6-2.6875-6-6v-122.097657c0-3.3125 2.6875-6 6-6h51c8.464844 0 16.273438 4.238282 20.894531 11.332032l24.984376 38.394531c2.660156 4.085937 4.066406 8.828125 4.066406 13.703125v64.667969c0 3.3125-2.6875 6-6 6zm-88.945313-12h82.945313v-58.667969c0-2.546875-.734375-5.023438-2.125-7.160156l-24.984375-38.390625c-2.394531-3.679688-6.445313-5.878907-10.839844-5.878907h-44.996094zm0 0" fill="#4c4372"/><path d="m381.671875 292.234375h-311.652344c-6.558593 0-11.898437-5.335937-11.898437-11.898437v-14.550782c0-6.558594 5.339844-11.898437 11.898437-11.898437h311.652344c6.5625 0 11.898437 5.339843 11.898437 11.898437v14.550782c0 6.558593-5.335937 11.898437-11.898437 11.898437zm0-12v6zm-311.550781 0h311.449218v-14.347656h-311.449218zm0 0" fill="#4c4372"/><path d="m375.683594 252.132812h-14.925782c-5.789062 0-10.496093-4.710937-10.496093-10.5v-20.273437c0-5.789063 4.707031-10.496094 10.496093-10.496094h14.925782c3.3125 0 6 2.683594 6 6v29.265625c0 3.316406-2.6875 6.003906-6 6.003906zm-13.421875-12h7.421875v-17.269531h-7.421875zm0 0" fill="#4c4372"/><path d="m299.492188 265.886719c-3.3125 0-6-2.6875-6-6v-104.746094c0-3.316406 2.6875-6 6-6h53.800781c3.3125 0 6 2.683594 6 6 0 3.3125-2.6875 6-6 6h-47.800781v98.746094c0 3.3125-2.6875 6-6 6zm0 0" fill="#4c4372"/><path d="m375.683594 201.21875h-26.34375c-3.3125 0-6-2.6875-6-6 0-3.316406 2.6875-6 6-6h26.34375c3.3125 0 6 2.683594 6 6 0 3.3125-2.6875 6-6 6zm0 0" fill="#4c4372"/><path d="m329.917969 201.21875h-30.425781c-3.3125 0-6-2.6875-6-6 0-3.316406 2.6875-6 6-6h30.425781c3.3125 0 6 2.683594 6 6 0 3.3125-2.6875 6-6 6zm0 0" fill="#4c4372"/><path d="m358.808594 274.160156c-6.667969-16.515625-25.457032-24.5-41.972656-17.832031-16.515626 6.664063-24.5 25.457031-17.835938 41.972656 6.667969 16.515625 25.460938 24.5 41.976562 17.835938 16.515626-6.667969 24.5-25.460938 17.832032-41.976563zm0 0" fill="#7babf1"/><path d="m328.90625 324.480469c-21.089844 0-38.246094-17.15625-38.246094-38.246094s17.15625-38.25 38.246094-38.25 38.25 17.160156 38.25 38.25-17.160156 38.246094-38.25 38.246094zm0-64.496094c-14.472656 0-26.246094 11.777344-26.246094 26.25s11.773438 26.246094 26.246094 26.246094c14.476562 0 26.25-11.773438 26.25-26.246094s-11.773438-26.25-26.25-26.25zm0 0" fill="#4c4372"/><path d="m331.015625 273.210938c-7.179687-1.171876-13.949219 3.703124-15.117187 10.882812-1.171876 7.179688 3.703124 13.949219 10.882812 15.121094 7.179688 1.167968 13.949219-3.703125 15.121094-10.882813 1.167968-7.183593-3.703125-13.953125-10.886719-15.121093zm0 0" fill="#fff"/><path d="m328.90625 305.40625c-10.570312 0-19.171875-8.601562-19.171875-19.171875 0-10.574219 8.601563-19.171875 19.171875-19.171875 10.574219 0 19.175781 8.597656 19.175781 19.171875 0 10.570313-8.601562 19.171875-19.175781 19.171875zm0-26.34375c-3.953125 0-7.171875 3.214844-7.171875 7.171875 0 3.953125 3.21875 7.171875 7.171875 7.171875 3.957031 0 7.175781-3.21875 7.175781-7.171875 0-3.957031-3.21875-7.171875-7.175781-7.171875zm0 0" fill="#4c4372"/><path d="m344.84375 209.890625h-10.429688c-2.484374 0-4.5-2.015625-4.5-4.5v-25.851563c0-2.484374 2.015626-4.5 4.5-4.5h10.429688c2.480469 0 4.496094 2.015626 4.496094 4.5v25.851563c0 2.484375-2.011719 4.5-4.496094 4.5zm0 0" fill="#d3e6f8"/><path d="m344.84375 215.890625h-10.429688c-5.789062 0-10.496093-4.710937-10.496093-10.5v-25.851563c0-5.789062 4.707031-10.5 10.496093-10.5h10.429688c5.789062 0 10.496094 4.710938 10.496094 10.5v25.851563c0 5.789063-4.707032 10.5-10.496094 10.5zm-8.925781-12h7.421875v-22.847656h-7.421875zm0 0" fill="#4c4372"/><path d="m186.433594 282.671875c-1.972656-17.699219-17.917969-30.453125-35.621094-28.480469-17.699219 1.972656-30.453125 17.921875-28.480469 35.621094 1.972657 17.703125 17.917969 30.453125 35.621094 28.480469 17.703125-1.96875 30.453125-17.917969 28.480469-35.621094zm0 0" fill="#7babf1"/><path d="m154.367188 324.480469c-21.089844 0-38.25-17.15625-38.25-38.246094s17.160156-38.25 38.25-38.25c21.089843 0 38.246093 17.160156 38.246093 38.25s-17.15625 38.246094-38.246093 38.246094zm0-64.496094c-14.472657 0-26.25 11.777344-26.25 26.25s11.777343 26.246094 26.25 26.246094c14.472656 0 26.246093-11.773438 26.246093-26.246094s-11.773437-26.25-26.246093-26.25zm0 0" fill="#4c4372"/><path d="m156.484375 273.214844c-7.183594-1.171875-13.953125 3.703125-15.121094 10.882812-1.171875 7.179688 3.703125 13.949219 10.882813 15.121094 7.179687 1.167969 13.949218-3.703125 15.121094-10.886719 1.167968-7.179687-3.703126-13.949219-10.882813-15.117187zm0 0" fill="#fff"/><g fill="#4c4372"><path d="m154.367188 305.40625c-10.574219 0-19.175782-8.601562-19.175782-19.171875 0-10.574219 8.601563-19.171875 19.175782-19.171875 10.570312 0 19.171874 8.597656 19.171874 19.171875 0 10.570313-8.601562 19.171875-19.171874 19.171875zm0-26.34375c-3.957032 0-7.175782 3.214844-7.175782 7.171875 0 3.953125 3.21875 7.171875 7.175782 7.171875 3.953124 0 7.171874-3.21875 7.171874-7.171875 0-3.957031-3.21875-7.171875-7.171874-7.171875zm0 0"/><path d="m123.855469 134.460938h-83.773438c-3.3125 0-6-2.6875-6-6 0-3.316407 2.6875-6 6-6h83.773438c3.316406 0 6 2.683593 6 6 0 3.3125-2.683594 6-6 6zm0 0"/><path d="m147.667969 187.820312h-107.585938c-3.3125 0-6-2.683593-6-6 0-3.3125 2.6875-6 6-6h107.582031c3.316407 0 6 2.6875 6 6 0 3.316407-2.683593 6-5.996093 6zm0 0"/><path d="m115.53125 215.890625h-51.410156c-3.3125 0-6-2.6875-6-6 0-3.316406 2.6875-6 6-6h51.410156c3.3125 0 6 2.683594 6 6 0 3.3125-2.6875 6-6 6zm0 0"/><path d="m45.933594 215.890625h-19.269532c-3.3125 0-6-2.6875-6-6 0-3.316406 2.6875-6 6-6h19.269532c3.3125 0 6 2.683594 6 6 0 3.3125-2.683594 6-6 6zm0 0"/><path d="m40.503906 161.140625h-14.074218c-3.3125 0-6-2.6875-6-6 0-3.316406 2.6875-6 6-6h14.074218c3.3125 0 6 2.683594 6 6 0 3.3125-2.683594 6-6 6zm0 0"/><path d="m101.246094 161.140625h-41.367188c-3.316406 0-6-2.6875-6-6 0-3.316406 2.683594-6 6-6h41.367188c3.316406 0 6 2.683594 6 6 0 3.3125-2.683594 6-6 6zm0 0"/><path d="m83.394531 247.542969h-52.953125c-3.3125 0-6-2.6875-6-6 0-3.316407 2.6875-6 6-6h52.953125c3.3125 0 6 2.683593 6 6 0 3.3125-2.6875 6-6 6zm0 0"/><path d="m137.933594 161.140625h-14.074219c-3.3125 0-6-2.6875-6-6 0-3.316406 2.6875-6 6-6h14.074219c3.3125 0 6 2.683594 6 6 0 3.3125-2.6875 6-6 6zm0 0"/></g></svg>